<svg width="260" height="220" viewBox="0 0 260 220" fill="none" xmlns="http://www.w3.org/2000/svg">
<path d="M129.995 204.993C182.46 204.993 224.991 162.461 224.991 109.996C224.991 57.5313 182.46 15 129.995 15C77.53 15 34.9987 57.5313 34.9987 109.996C34.9987 162.461 77.53 204.993 129.995 204.993Z" fill="#E0F5F3"/>
<path d="M155.994 39.999H103.996C96.2644 39.999 89.9966 46.2668 89.9966 53.9985V165.994C89.9966 173.726 96.2644 179.994 103.996 179.994H155.994C163.726 179.994 169.994 173.726 169.994 165.994V53.9985C169.994 46.2668 163.726 39.999 155.994 39.999Z" fill="white" stroke="#049B83" stroke-width="2.4999"/>
<path d="M156.994 57.998H102.996C99.6824 57.998 96.9962 60.6842 96.9962 63.9978V156.994C96.9962 160.308 99.6824 162.994 102.996 162.994H156.994C160.307 162.994 162.994 160.308 162.994 156.994V63.9978C162.994 60.6842 160.307 57.998 156.994 57.998Z" fill="#F0FAFA"/>
<path opacity="0.3" d="M140.495 42.999H119.495C117.562 42.999 115.995 44.566 115.995 46.499C115.995 48.432 117.562 49.999 119.495 49.999H140.495C142.428 49.999 143.995 48.432 143.995 46.499C143.995 44.566 142.428 42.999 140.495 42.999Z" fill="#049B83"/>
<path opacity="0.4" d="M141.995 171.994H117.995C116.891 171.994 115.995 172.889 115.995 173.994C115.995 175.098 116.891 175.994 117.995 175.994H141.995C143.1 175.994 143.995 175.098 143.995 173.994C143.995 172.889 143.1 171.994 141.995 171.994Z" fill="#049B83"/>
<path d="M150.995 69.9976H108.996C104.578 69.9976 100.996 73.5792 100.996 77.9973V116.996C100.996 121.414 104.578 124.996 108.996 124.996H150.995C155.413 124.996 158.995 121.414 158.995 116.996V77.9973C158.995 73.5792 155.413 69.9976 150.995 69.9976Z" fill="white" stroke="#049B83" stroke-width="1.49994"/>
<path opacity="0.15" d="M129.995 92.9976C135.518 92.9976 139.995 88.5204 139.995 82.9976C139.995 77.4747 135.518 72.9976 129.995 72.9976C124.473 72.9976 119.995 77.4747 119.995 82.9976C119.995 88.5204 124.473 92.9976 129.995 92.9976Z" fill="#049B83"/>
<path d="M124.995 81.9976C124.995 77.9976 126.662 75.9976 129.995 75.9976C133.329 75.9976 134.995 77.9976 134.995 81.9976L135.995 87.9976H123.995L124.995 81.9976Z" fill="#049B83"/>
<path d="M127.995 87.9971C127.995 89.9971 128.662 90.9971 129.995 90.9971C131.328 90.9971 131.995 89.9971 131.995 87.9971" fill="#049B83"/>
<path d="M123.995 87.9971H135.995" stroke="#049B83" stroke-width="1.49994"/>
<path opacity="0.5" d="M152.495 94.9966H107.496C106.115 94.9966 104.996 96.1158 104.996 97.4965C104.996 98.8772 106.115 99.9964 107.496 99.9964H152.495C153.875 99.9964 154.995 98.8772 154.995 97.4965C154.995 96.1158 153.875 94.9966 152.495 94.9966Z" fill="#049B83"/>
<path opacity="0.3" d="M148.995 103.997H110.996C109.891 103.997 108.996 104.892 108.996 105.997C108.996 107.101 109.891 107.996 110.996 107.996H148.995C150.099 107.996 150.995 107.101 150.995 105.997C150.995 104.892 150.099 103.997 148.995 103.997Z" fill="#049B83"/>
<path opacity="0.2" d="M144.996 112.996H114.996C113.891 112.996 112.996 113.892 112.996 114.996C112.996 116.101 113.891 116.996 114.996 116.996H144.996C146.1 116.996 146.996 116.101 146.996 114.996C146.996 113.892 146.1 112.996 144.996 112.996Z" fill="#049B83"/>
<path d="M117.961 123.853L104.854 133.031C101.235 135.565 100.356 140.553 102.89 144.172C105.424 147.792 110.412 148.671 114.032 146.137L127.138 136.96C130.757 134.426 131.637 129.437 129.103 125.818C126.568 122.199 121.58 121.319 117.961 123.853Z" fill="white" stroke="#049B83" stroke-width="1.99992"/>
<path d="M111.407 128.442L120.584 141.549" stroke="#049B83" stroke-width="1.99992"/>
<path opacity="0.4" d="M115.996 134.995C113.462 131.376 108.474 130.496 104.854 133.031C101.235 135.565 100.356 140.553 102.89 144.172C105.424 147.792 110.412 148.671 114.032 146.137C117.651 143.603 118.53 138.614 115.996 134.995Z" fill="#049B83"/>
<path opacity="0.3" d="M129.995 167.994C162.026 167.994 187.993 142.028 187.993 109.996C187.993 77.965 162.026 51.9985 129.995 51.9985C97.9637 51.9985 71.9972 77.965 71.9972 109.996C71.9972 142.028 97.9637 167.994 129.995 167.994Z" stroke="#049B83" stroke-width="1.99992" stroke-dasharray="4 6"/>
<path opacity="0.15" d="M129.995 181.993C169.758 181.993 201.992 149.759 201.992 109.996C201.992 70.2333 169.758 37.999 129.995 37.999C90.2321 37.999 57.9978 70.2333 57.9978 109.996C57.9978 149.759 90.2321 181.993 129.995 181.993Z" stroke="#049B83" stroke-width="1.49994" stroke-dasharray="3 8"/>
<path d="M75.9972 94.9966C71.9972 102.997 71.9972 110.997 75.9972 118.997" stroke="#049B83" stroke-width="2.4999" stroke-linecap="round"/>
<path opacity="0.6" d="M68.9976 88.9971C62.3309 100.997 62.3309 112.997 68.9976 124.997" stroke="#049B83" stroke-width="1.99992" stroke-linecap="round"/>
<path d="M183.993 94.9966C187.993 102.997 187.993 110.997 183.993 118.997" stroke="#049B83" stroke-width="2.4999" stroke-linecap="round"/>
<path opacity="0.6" d="M190.993 88.9971C197.659 100.997 197.659 112.997 190.993 124.997" stroke="#049B83" stroke-width="1.99992" stroke-linecap="round"/>
</svg>
