<svg width="260" height="220" viewBox="0 0 260 220" fill="none" xmlns="http://www.w3.org/2000/svg">
<path d="M129.995 204.993C182.46 204.993 224.991 162.461 224.991 109.996C224.991 57.5313 182.46 15 129.995 15C77.53 15 34.9987 57.5313 34.9987 109.996C34.9987 162.461 77.53 204.993 129.995 204.993Z" fill="#E0F5F3"/>
<path d="M101.996 54.9985H61.9977C56.475 54.9985 51.998 59.4755 51.998 64.9981V149.995C51.998 155.518 56.475 159.994 61.9977 159.994H101.996C107.519 159.994 111.996 155.518 111.996 149.995V64.9981C111.996 59.4755 107.519 54.9985 101.996 54.9985Z" fill="white" stroke="#049B83" stroke-width="2.4999"/>
<path d="M102.997 69.9976H60.9977C58.7886 69.9976 56.9978 71.7884 56.9978 73.9975V140.996C56.9978 143.205 58.7886 144.996 60.9977 144.996H102.997C105.206 144.996 106.996 143.205 106.996 140.996V73.9975C106.996 71.7884 105.206 69.9976 102.997 69.9976Z" fill="#E0F5F3"/>
<path opacity="0.3" d="M81.9973 101.998C88.6247 101.998 93.9973 96.625 93.9973 89.9976C93.9973 83.3701 88.6247 77.9976 81.9973 77.9976C75.3699 77.9976 69.9973 83.3701 69.9973 89.9976C69.9973 96.625 75.3699 101.998 81.9973 101.998Z" fill="#049B83"/>
<path d="M81.9971 92.9976C85.8631 92.9976 88.9971 89.8636 88.9971 85.9976C88.9971 82.1316 85.8631 78.9976 81.9971 78.9976C78.1311 78.9976 74.9971 82.1316 74.9971 85.9976C74.9971 89.8636 78.1311 92.9976 81.9971 92.9976Z" fill="#049B83"/>
<path d="M69.9973 106.997C77.9973 102.33 85.9973 102.33 93.9973 106.997H69.9973Z" fill="#049B83"/>
<path opacity="0.4" d="M99.4966 119.996H64.4975C63.1168 119.996 61.9976 121.115 61.9976 122.496C61.9976 123.876 63.1168 124.995 64.4975 124.995H99.4966C100.877 124.995 101.996 123.876 101.996 122.496C101.996 121.115 100.877 119.996 99.4966 119.996Z" fill="#049B83"/>
<path opacity="0.3" d="M89.4976 129.996H64.4976C63.1168 129.996 61.9976 131.115 61.9976 132.496C61.9976 133.876 63.1168 134.996 64.4976 134.996H89.4976C90.8783 134.996 91.9976 133.876 91.9976 132.496C91.9976 131.115 90.8783 129.996 89.4976 129.996Z" fill="#049B83"/>
<path opacity="0.4" d="M81.9971 154.995C84.7585 154.995 86.9971 152.756 86.9971 149.995C86.9971 147.233 84.7585 144.995 81.9971 144.995C79.2356 144.995 76.9971 147.233 76.9971 149.995C76.9971 152.756 79.2356 154.995 81.9971 154.995Z" fill="#049B83"/>
<path opacity="0.3" d="M89.4972 56.998H74.4972C73.1165 56.998 71.9972 58.1173 71.9972 59.498C71.9972 60.8788 73.1165 61.998 74.4972 61.998H89.4972C90.8779 61.998 91.9972 60.8788 91.9972 59.498C91.9972 58.1173 90.8779 56.998 89.4972 56.998Z" fill="#049B83"/>
<path d="M197.992 54.9985H157.994C152.471 54.9985 147.994 59.4755 147.994 64.9981V149.995C147.994 155.518 152.471 159.994 157.994 159.994H197.992C203.515 159.994 207.992 155.518 207.992 149.995V64.9981C207.992 59.4755 203.515 54.9985 197.992 54.9985Z" fill="white" stroke="#049B83" stroke-width="2.4999"/>
<path d="M198.993 69.9976H156.994C154.785 69.9976 152.994 71.7884 152.994 73.9975V140.996C152.994 143.205 154.785 144.996 156.994 144.996H198.993C201.202 144.996 202.993 143.205 202.993 140.996V73.9975C202.993 71.7884 201.202 69.9976 198.993 69.9976Z" fill="#E0F5F3"/>
<path opacity="0.3" d="M177.994 101.998C184.621 101.998 189.994 96.625 189.994 89.9976C189.994 83.3701 184.621 77.9976 177.994 77.9976C171.366 77.9976 165.994 83.3701 165.994 89.9976C165.994 96.625 171.366 101.998 177.994 101.998Z" fill="#049B83"/>
<path d="M177.993 92.9976C181.859 92.9976 184.993 89.8636 184.993 85.9976C184.993 82.1316 181.859 78.9976 177.993 78.9976C174.127 78.9976 170.993 82.1316 170.993 85.9976C170.993 89.8636 174.127 92.9976 177.993 92.9976Z" fill="#049B83"/>
<path d="M165.994 106.997C173.994 102.33 181.994 102.33 189.994 106.997H165.994Z" fill="#049B83"/>
<path opacity="0.7" d="M172.993 91.9972C172.993 89.3306 174.66 88.6639 177.993 89.9972C181.327 88.6639 182.993 89.3306 182.993 91.9972C182.993 94.6639 181.327 97.3306 177.993 99.9972C174.66 97.3306 172.993 94.6639 172.993 91.9972Z" fill="#049B83"/>
<path opacity="0.4" d="M195.493 119.996H160.494C159.113 119.996 157.994 121.115 157.994 122.496C157.994 123.876 159.113 124.995 160.494 124.995H195.493C196.874 124.995 197.993 123.876 197.993 122.496C197.993 121.115 196.874 119.996 195.493 119.996Z" fill="#049B83"/>
<path opacity="0.3" d="M190.494 129.996H160.494C159.113 129.996 157.994 131.115 157.994 132.496C157.994 133.876 159.113 134.996 160.494 134.996H190.494C191.875 134.996 192.994 133.876 192.994 132.496C192.994 131.115 191.875 129.996 190.494 129.996Z" fill="#049B83"/>
<path opacity="0.4" d="M177.993 154.995C180.755 154.995 182.993 152.756 182.993 149.995C182.993 147.233 180.755 144.995 177.993 144.995C175.232 144.995 172.993 147.233 172.993 149.995C172.993 152.756 175.232 154.995 177.993 154.995Z" fill="#049B83"/>
<path opacity="0.3" d="M185.494 56.998H170.494C169.113 56.998 167.994 58.1173 167.994 59.498C167.994 60.8788 169.113 61.998 170.494 61.998H185.494C186.874 61.998 187.994 60.8788 187.994 59.498C187.994 58.1173 186.874 56.998 185.494 56.998Z" fill="#049B83"/>
<path d="M111.996 106.997C123.996 98.9966 135.996 98.9966 147.996 106.997" stroke="#049B83" stroke-width="2.4999" stroke-dasharray="5 4"/>
<path d="M111.996 106.997L117.996 99.9966V113.997L111.996 106.997Z" fill="#049B83"/>
<path d="M147.995 106.997L141.995 99.9966V113.997L147.995 106.997Z" fill="#049B83"/>
<path d="M129.995 99.9971C132.757 99.9971 134.995 97.7585 134.995 94.9971C134.995 92.2356 132.757 89.9971 129.995 89.9971C127.234 89.9971 124.995 92.2356 124.995 94.9971C124.995 97.7585 127.234 99.9971 129.995 99.9971Z" fill="#049B83"/>
<path opacity="0.2" d="M129.995 103.997C134.966 103.997 138.995 99.9676 138.995 94.9971C138.995 90.0265 134.966 85.9971 129.995 85.9971C125.025 85.9971 120.995 90.0265 120.995 94.9971C120.995 99.9676 125.025 103.997 129.995 103.997Z" fill="#049B83"/>
<path d="M56.1225 184.994V176.267H59.5656C60.2275 176.267 60.7914 176.393 61.2573 176.646C61.7232 176.896 62.0783 177.244 62.3226 177.69C62.5697 178.133 62.6933 178.644 62.6933 179.224C62.6933 179.804 62.5683 180.315 62.3183 180.758C62.0683 181.201 61.7061 181.546 61.2317 181.793C60.7601 182.041 60.1891 182.164 59.5187 182.164H57.3242V180.686H59.2204C59.5755 180.686 59.8681 180.625 60.0982 180.502C60.3312 180.377 60.5045 180.205 60.6181 179.987C60.7346 179.765 60.7928 179.511 60.7928 179.224C60.7928 178.934 60.7346 178.681 60.6181 178.465C60.5045 178.247 60.3312 178.078 60.0982 177.958C59.8653 177.836 59.5698 177.775 59.2119 177.775H57.9676V184.994H56.1225ZM65.5483 185.117C65.1307 185.117 64.7585 185.045 64.4319 184.9C64.1052 184.752 63.8467 184.535 63.6563 184.248C63.4688 183.958 63.3751 183.597 63.3751 183.166C63.3751 182.802 63.4418 182.497 63.5754 182.249C63.7089 182.002 63.8907 181.803 64.1208 181.653C64.3509 181.502 64.6122 181.389 64.9049 181.312C65.2003 181.235 65.5099 181.181 65.8338 181.15C66.2145 181.11 66.5213 181.073 66.7542 181.039C66.9872 181.002 67.1562 180.948 67.2613 180.877C67.3664 180.806 67.419 180.701 67.419 180.562V180.536C67.419 180.267 67.3337 180.058 67.1633 179.91C66.9957 179.762 66.7571 179.688 66.4474 179.688C66.1207 179.688 65.8608 179.761 65.6676 179.906C65.4744 180.048 65.3466 180.227 65.2841 180.443L63.6052 180.306C63.6904 179.909 63.858 179.565 64.108 179.275C64.358 178.983 64.6804 178.758 65.0753 178.602C65.473 178.443 65.9332 178.363 66.4559 178.363C66.8195 178.363 67.1675 178.406 67.4999 178.491C67.8351 178.576 68.132 178.708 68.3905 178.887C68.6519 179.066 68.8578 179.296 69.0084 179.578C69.1589 179.856 69.2342 180.19 69.2342 180.579V184.994H67.5127V184.086H67.4616C67.3565 184.291 67.2158 184.471 67.0397 184.627C66.8636 184.781 66.6519 184.901 66.4048 184.989C66.1576 185.075 65.8721 185.117 65.5483 185.117ZM66.0682 183.864C66.3352 183.864 66.571 183.812 66.7755 183.707C66.9801 183.599 67.1406 183.454 67.257 183.272C67.3735 183.09 67.4317 182.884 67.4317 182.654V181.96C67.3749 181.997 67.2968 182.031 67.1974 182.062C67.1008 182.09 66.9914 182.117 66.8693 182.143C66.7471 182.166 66.625 182.187 66.5028 182.207C66.3806 182.224 66.2699 182.239 66.1704 182.254C65.9574 182.285 65.7713 182.335 65.6122 182.403C65.4531 182.471 65.3296 182.563 65.2415 182.68C65.1534 182.793 65.1094 182.935 65.1094 183.106C65.1094 183.353 65.1989 183.542 65.3778 183.673C65.5597 183.801 65.7898 183.864 66.0682 183.864ZM73.5998 185.121C72.9294 185.121 72.3527 184.979 71.8698 184.695C71.3897 184.408 71.0204 184.011 70.7619 183.502C70.5062 182.994 70.3784 182.409 70.3784 181.747C70.3784 181.076 70.5076 180.488 70.7661 179.982C71.0275 179.474 71.3982 179.078 71.8783 178.794C72.3584 178.507 72.9294 178.363 73.5913 178.363C74.1623 178.363 74.6623 178.467 75.0912 178.674C75.5202 178.882 75.8597 179.173 76.1097 179.548C76.3597 179.923 76.4974 180.363 76.523 180.869H74.81C74.7617 180.542 74.6339 180.279 74.4265 180.08C74.222 179.879 73.9535 179.778 73.6211 179.778C73.3399 179.778 73.0942 179.855 72.8839 180.008C72.6766 180.159 72.5146 180.379 72.3982 180.669C72.2817 180.958 72.2235 181.309 72.2235 181.721C72.2235 182.139 72.2803 182.494 72.3939 182.786C72.5104 183.079 72.6737 183.302 72.8839 183.455C73.0942 183.609 73.3399 183.685 73.6211 183.685C73.8285 183.685 74.0146 183.643 74.1794 183.558C74.347 183.472 74.4847 183.349 74.5927 183.187C74.7035 183.022 74.7759 182.825 74.81 182.595H76.523C76.4946 183.095 76.3582 183.535 76.1139 183.916C75.8725 184.293 75.5387 184.589 75.1126 184.802C74.6864 185.015 74.1822 185.121 73.5998 185.121ZM77.6853 184.994V178.448H79.5005V184.994H77.6853ZM78.5972 177.605C78.3273 177.605 78.0957 177.515 77.9026 177.336C77.7122 177.154 77.6171 176.937 77.6171 176.684C77.6171 176.434 77.7122 176.22 77.9026 176.041C78.0957 175.859 78.3273 175.768 78.5972 175.768C78.867 175.768 79.0971 175.859 79.2875 176.041C79.4806 176.22 79.5772 176.434 79.5772 176.684C79.5772 176.937 79.4806 177.154 79.2875 177.336C79.0971 177.515 78.867 177.605 78.5972 177.605ZM83.9375 185.121C83.2642 185.121 82.6847 184.985 82.1989 184.712C81.716 184.437 81.3438 184.048 81.0825 183.545C80.8211 183.039 80.6905 182.441 80.6905 181.751C80.6905 181.078 80.8211 180.487 81.0825 179.978C81.3438 179.47 81.7117 179.073 82.1861 178.789C82.6634 178.505 83.223 178.363 83.8651 178.363C84.2969 178.363 84.6988 178.433 85.071 178.572C85.446 178.708 85.7727 178.914 86.0511 179.19C86.3323 179.465 86.551 179.812 86.7073 180.23C86.8635 180.644 86.9416 181.13 86.9416 181.687V182.186H81.4149V181.061H85.2329C85.2329 180.799 85.1761 180.568 85.0625 180.366C84.9488 180.164 84.7912 180.007 84.5895 179.893C84.3906 179.777 84.1591 179.718 83.8949 179.718C83.6193 179.718 83.375 179.782 83.162 179.91C82.9517 180.035 82.787 180.204 82.6677 180.417C82.5483 180.627 82.4873 180.862 82.4844 181.12V182.19C82.4844 182.514 82.5441 182.793 82.6634 183.029C82.7856 183.265 82.9574 183.447 83.179 183.575C83.4006 183.703 83.6634 183.766 83.9673 183.766C84.169 183.766 84.3537 183.738 84.5213 183.681C84.6889 183.624 84.8323 183.539 84.9517 183.426C85.071 183.312 85.1619 183.173 85.2244 183.008L86.9033 183.119C86.8181 183.522 86.6434 183.874 86.3792 184.176C86.1178 184.474 85.7798 184.707 85.365 184.874C84.9531 185.039 84.4772 185.121 83.9375 185.121ZM89.9415 181.21V184.994H88.1263V178.448H89.8563V179.603H89.933C90.0779 179.223 90.3208 178.921 90.6617 178.7C91.0026 178.475 91.4159 178.363 91.9017 178.363C92.3562 178.363 92.7525 178.463 93.0906 178.662C93.4286 178.86 93.6914 179.144 93.8789 179.514C94.0664 179.88 94.1601 180.318 94.1601 180.826V184.994H92.3448V181.15C92.3477 180.749 92.2454 180.437 92.038 180.213C91.8307 179.985 91.5452 179.872 91.1815 179.872C90.9372 179.872 90.7213 179.924 90.5338 180.029C90.3492 180.134 90.2043 180.288 90.0992 180.49C89.9969 180.688 89.9444 180.928 89.9415 181.21ZM99.0722 178.448V179.812H95.1306V178.448H99.0722ZM96.0255 176.88H97.8407V182.982C97.8407 183.15 97.8663 183.281 97.9174 183.374C97.9686 183.465 98.0396 183.529 98.1305 183.566C98.2242 183.603 98.3322 183.622 98.4543 183.622C98.5396 183.622 98.6248 183.614 98.71 183.6C98.7952 183.583 98.8606 183.57 98.906 183.562L99.1915 184.913C99.1006 184.941 98.9728 184.974 98.808 185.011C98.6433 185.05 98.443 185.075 98.2072 185.083C97.7697 185.1 97.3862 185.042 97.0567 184.908C96.73 184.775 96.4757 184.568 96.2939 184.286C96.1121 184.005 96.0226 183.65 96.0255 183.221V176.88ZM103.167 185.121C102.494 185.121 101.914 184.985 101.429 184.712C100.946 184.437 100.574 184.048 100.312 183.545C100.051 183.039 99.9202 182.441 99.9202 181.751C99.9202 181.078 100.051 180.487 100.312 179.978C100.574 179.47 100.941 179.073 101.416 178.789C101.893 178.505 102.453 178.363 103.095 178.363C103.527 178.363 103.929 178.433 104.301 178.572C104.676 178.708 105.002 178.914 105.281 179.19C105.562 179.465 105.781 179.812 105.937 180.23C106.093 180.644 106.171 181.13 106.171 181.687V182.186H100.645V181.061H104.463C104.463 180.799 104.406 180.568 104.292 180.366C104.179 180.164 104.021 180.007 103.819 179.893C103.62 179.777 103.389 179.718 103.125 179.718C102.849 179.718 102.605 179.782 102.392 179.91C102.181 180.035 102.017 180.204 101.897 180.417C101.778 180.627 101.717 180.862 101.714 181.12V182.19C101.714 182.514 101.774 182.793 101.893 183.029C102.015 183.265 102.187 183.447 102.409 183.575C102.63 183.703 102.893 183.766 103.197 183.766C103.399 183.766 103.583 183.738 103.751 183.681C103.919 183.624 104.062 183.539 104.181 183.426C104.301 183.312 104.392 183.173 104.454 183.008L106.133 183.119C106.048 183.522 105.873 183.874 105.609 184.176C105.348 184.474 105.009 184.707 104.595 184.874C104.183 185.039 103.707 185.121 103.167 185.121Z" fill="#049B83"/>
<path d="M159.331 179.322H157.464C157.43 179.081 157.361 178.866 157.256 178.679C157.15 178.488 157.015 178.326 156.851 178.193C156.686 178.059 156.496 177.957 156.28 177.886C156.067 177.815 155.835 177.779 155.585 177.779C155.133 177.779 154.74 177.892 154.405 178.116C154.07 178.338 153.81 178.662 153.625 179.088C153.44 179.511 153.348 180.025 153.348 180.63C153.348 181.252 153.44 181.775 153.625 182.198C153.812 182.622 154.074 182.941 154.409 183.157C154.744 183.373 155.132 183.481 155.572 183.481C155.82 183.481 156.048 183.448 156.258 183.383C156.471 183.318 156.66 183.222 156.825 183.097C156.99 182.97 157.126 182.815 157.234 182.633C157.345 182.451 157.422 182.244 157.464 182.011L159.331 182.019C159.282 182.42 159.162 182.806 158.969 183.178C158.778 183.548 158.521 183.879 158.197 184.171C157.876 184.461 157.493 184.691 157.047 184.862C156.604 185.029 156.102 185.113 155.543 185.113C154.764 185.113 154.068 184.937 153.455 184.585C152.844 184.232 152.361 183.722 152.006 183.055C151.653 182.387 151.477 181.579 151.477 180.63C151.477 179.679 151.656 178.869 152.014 178.201C152.372 177.534 152.858 177.025 153.472 176.676C154.085 176.324 154.776 176.147 155.543 176.147C156.048 176.147 156.517 176.218 156.949 176.36C157.383 176.503 157.768 176.71 158.104 176.983C158.439 177.252 158.711 177.583 158.922 177.975C159.135 178.367 159.271 178.816 159.331 179.322ZM164.817 182.207V178.448H166.632V184.994H164.889V183.805H164.821C164.674 184.188 164.428 184.497 164.084 184.729C163.743 184.962 163.327 185.079 162.836 185.079C162.398 185.079 162.013 184.979 161.681 184.781C161.348 184.582 161.088 184.299 160.901 183.933C160.716 183.566 160.623 183.127 160.62 182.616V178.448H162.435V182.292C162.438 182.678 162.542 182.984 162.746 183.208C162.951 183.433 163.225 183.545 163.569 183.545C163.787 183.545 163.992 183.495 164.182 183.396C164.372 183.293 164.526 183.143 164.642 182.944C164.762 182.745 164.82 182.499 164.817 182.207ZM168.084 184.994V178.448H169.9V184.994H168.084ZM168.996 177.605C168.726 177.605 168.495 177.515 168.302 177.336C168.111 177.154 168.016 176.937 168.016 176.684C168.016 176.434 168.111 176.22 168.302 176.041C168.495 175.859 168.726 175.768 168.996 175.768C169.266 175.768 169.496 175.859 169.687 176.041C169.88 176.22 169.976 176.434 169.976 176.684C169.976 176.937 169.88 177.154 169.687 177.336C169.496 177.515 169.266 177.605 168.996 177.605ZM173.766 185.1C173.268 185.1 172.818 184.972 172.415 184.717C172.014 184.458 171.696 184.079 171.46 183.579C171.227 183.076 171.111 182.46 171.111 181.73C171.111 180.98 171.232 180.356 171.473 179.859C171.714 179.359 172.036 178.985 172.436 178.738C172.839 178.488 173.281 178.363 173.761 178.363C174.128 178.363 174.433 178.426 174.677 178.551C174.925 178.673 175.123 178.826 175.274 179.011C175.427 179.193 175.544 179.372 175.623 179.548H175.679V176.267H177.49V184.994H175.7V183.945H175.623C175.538 184.127 175.417 184.308 175.261 184.487C175.108 184.663 174.908 184.809 174.66 184.925C174.416 185.042 174.118 185.1 173.766 185.1ZM174.341 183.656C174.633 183.656 174.881 183.576 175.082 183.417C175.287 183.255 175.443 183.029 175.551 182.739C175.662 182.45 175.717 182.11 175.717 181.721C175.717 181.332 175.663 180.994 175.555 180.707C175.447 180.42 175.291 180.198 175.087 180.042C174.882 179.886 174.633 179.808 174.341 179.808C174.043 179.808 173.791 179.889 173.587 180.051C173.382 180.213 173.227 180.437 173.122 180.724C173.017 181.011 172.964 181.343 172.964 181.721C172.964 182.102 173.017 182.438 173.122 182.731C173.23 183.021 173.385 183.248 173.587 183.413C173.791 183.575 174.043 183.656 174.341 183.656ZM180.849 185.117C180.431 185.117 180.059 185.045 179.732 184.9C179.406 184.752 179.147 184.535 178.957 184.248C178.769 183.958 178.676 183.597 178.676 183.166C178.676 182.802 178.742 182.497 178.876 182.249C179.009 182.002 179.191 181.803 179.421 181.653C179.651 181.502 179.913 181.389 180.205 181.312C180.501 181.235 180.81 181.181 181.134 181.15C181.515 181.11 181.822 181.073 182.055 181.039C182.288 181.002 182.457 180.948 182.562 180.877C182.667 180.806 182.719 180.701 182.719 180.562V180.536C182.719 180.267 182.634 180.058 182.464 179.91C182.296 179.762 182.057 179.688 181.748 179.688C181.421 179.688 181.161 179.761 180.968 179.906C180.775 180.048 180.647 180.227 180.585 180.443L178.906 180.306C178.991 179.909 179.158 179.565 179.408 179.275C179.658 178.983 179.981 178.758 180.376 178.602C180.773 178.443 181.234 178.363 181.756 178.363C182.12 178.363 182.468 178.406 182.8 178.491C183.136 178.576 183.432 178.708 183.691 178.887C183.952 179.066 184.158 179.296 184.309 179.578C184.459 179.856 184.535 180.19 184.535 180.579V184.994H182.813V184.086H182.762C182.657 184.291 182.516 184.471 182.34 184.627C182.164 184.781 181.952 184.901 181.705 184.989C181.458 185.075 181.173 185.117 180.849 185.117ZM181.369 183.864C181.636 183.864 181.871 183.812 182.076 183.707C182.28 183.599 182.441 183.454 182.557 183.272C182.674 183.09 182.732 182.884 182.732 182.654V181.96C182.675 181.997 182.597 182.031 182.498 182.062C182.401 182.09 182.292 182.117 182.17 182.143C182.048 182.166 181.925 182.187 181.803 182.207C181.681 182.224 181.57 182.239 181.471 182.254C181.258 182.285 181.072 182.335 180.913 182.403C180.754 182.471 180.63 182.563 180.542 182.68C180.454 182.793 180.41 182.935 180.41 183.106C180.41 183.353 180.499 183.542 180.678 183.673C180.86 183.801 181.09 183.864 181.369 183.864ZM188.355 185.1C187.858 185.1 187.407 184.972 187.004 184.717C186.603 184.458 186.285 184.079 186.05 183.579C185.817 183.076 185.7 182.46 185.7 181.73C185.7 180.98 185.821 180.356 186.062 179.859C186.304 179.359 186.625 178.985 187.025 178.738C187.429 178.488 187.87 178.363 188.351 178.363C188.717 178.363 189.022 178.426 189.267 178.551C189.514 178.673 189.713 178.826 189.863 179.011C190.017 179.193 190.133 179.372 190.213 179.548H190.268V176.267H192.079V184.994H190.289V183.945H190.213C190.127 184.127 190.007 184.308 189.851 184.487C189.697 184.663 189.497 184.809 189.25 184.925C189.005 185.042 188.707 185.1 188.355 185.1ZM188.93 183.656C189.223 183.656 189.47 183.576 189.672 183.417C189.876 183.255 190.032 183.029 190.14 182.739C190.251 182.45 190.306 182.11 190.306 181.721C190.306 181.332 190.252 180.994 190.145 180.707C190.037 180.42 189.88 180.198 189.676 180.042C189.471 179.886 189.223 179.808 188.93 179.808C188.632 179.808 188.38 179.889 188.176 180.051C187.971 180.213 187.817 180.437 187.711 180.724C187.606 181.011 187.554 181.343 187.554 181.721C187.554 182.102 187.606 182.438 187.711 182.731C187.819 183.021 187.974 183.248 188.176 183.413C188.38 183.575 188.632 183.656 188.93 183.656ZM196.529 185.121C195.867 185.121 195.295 184.981 194.812 184.7C194.332 184.416 193.961 184.021 193.699 183.515C193.438 183.007 193.307 182.417 193.307 181.747C193.307 181.071 193.438 180.48 193.699 179.974C193.961 179.465 194.332 179.071 194.812 178.789C195.295 178.505 195.867 178.363 196.529 178.363C197.191 178.363 197.762 178.505 198.242 178.789C198.725 179.071 199.097 179.465 199.358 179.974C199.62 180.48 199.75 181.071 199.75 181.747C199.75 182.417 199.62 183.007 199.358 183.515C199.097 184.021 198.725 184.416 198.242 184.7C197.762 184.981 197.191 185.121 196.529 185.121ZM196.537 183.715C196.839 183.715 197.09 183.63 197.292 183.46C197.493 183.286 197.645 183.051 197.748 182.752C197.853 182.454 197.905 182.115 197.905 181.734C197.905 181.353 197.853 181.014 197.748 180.715C197.645 180.417 197.493 180.181 197.292 180.008C197.09 179.835 196.839 179.748 196.537 179.748C196.233 179.748 195.978 179.835 195.77 180.008C195.566 180.181 195.411 180.417 195.306 180.715C195.204 181.014 195.153 181.353 195.153 181.734C195.153 182.115 195.204 182.454 195.306 182.752C195.411 183.051 195.566 183.286 195.77 183.46C195.978 183.63 196.233 183.715 196.537 183.715ZM200.931 184.994V178.448H202.691V179.59H202.759C202.878 179.184 203.078 178.877 203.36 178.67C203.641 178.46 203.965 178.355 204.331 178.355C204.422 178.355 204.52 178.36 204.625 178.372C204.73 178.383 204.823 178.399 204.902 178.419V180.029C204.817 180.004 204.699 179.981 204.548 179.961C204.398 179.941 204.26 179.931 204.135 179.931C203.868 179.931 203.629 179.99 203.419 180.106C203.212 180.22 203.047 180.379 202.925 180.583C202.806 180.788 202.746 181.024 202.746 181.291V184.994H200.931Z" fill="#049B83"/>
</svg>
