<svg width="280" height="240" viewBox="0 0 280 240" fill="none" xmlns="http://www.w3.org/2000/svg">
<path d="M140 225.001C197.99 225.001 245 177.991 245 120.001C245 62.0111 197.99 15.001 140 15.001C82.0101 15.001 35 62.0111 35 120.001C35 177.991 82.0101 225.001 140 225.001Z" fill="#E0F5F3"/>
<path d="M140 205.001C160.987 205.001 178 196.046 178 185.001C178 173.955 160.987 165.001 140 165.001C119.013 165.001 102 173.955 102 185.001C102 196.046 119.013 205.001 140 205.001Z" fill="#B2E8E2"/>
<path opacity="0.85" d="M154 140.001H126C118.268 140.001 112 146.269 112 154.001V176.001C112 183.733 118.268 190.001 126 190.001H154C161.732 190.001 168 183.733 168 176.001V154.001C168 146.269 161.732 140.001 154 140.001Z" fill="#049B83"/>
<path d="M140 148.001C155.464 148.001 168 135.465 168 120.001C168 104.537 155.464 92.0007 140 92.0007C124.536 92.0007 112 104.537 112 120.001C112 135.465 124.536 148.001 140 148.001Z" fill="#FDDCB5"/>
<path d="M140 108.001C155.464 108.001 168 102.628 168 96.0007C168 89.3733 155.464 84.0007 140 84.0007C124.536 84.0007 112 89.3733 112 96.0007C112 102.628 124.536 108.001 140 108.001Z" fill="#4B3621"/>
<path d="M118 122.001C122.418 122.001 126 115.733 126 108.001C126 100.269 122.418 94.0007 118 94.0007C113.582 94.0007 110 100.269 110 108.001C110 115.733 113.582 122.001 118 122.001Z" fill="#4B3621"/>
<path d="M162 122.001C166.418 122.001 170 115.733 170 108.001C170 100.269 166.418 94.0007 162 94.0007C157.582 94.0007 154 100.269 154 108.001C154 115.733 157.582 122.001 162 122.001Z" fill="#4B3621"/>
<path d="M131 122.001C133.209 122.001 135 120.21 135 118.001C135 115.792 133.209 114.001 131 114.001C128.791 114.001 127 115.792 127 118.001C127 120.21 128.791 122.001 131 122.001Z" fill="white"/>
<path d="M149 122.001C151.209 122.001 153 120.21 153 118.001C153 115.792 151.209 114.001 149 114.001C146.791 114.001 145 115.792 145 118.001C145 120.21 146.791 122.001 149 122.001Z" fill="white"/>
<path d="M132 121.001C133.105 121.001 134 120.105 134 119.001C134 117.896 133.105 117.001 132 117.001C130.895 117.001 130 117.896 130 119.001C130 120.105 130.895 121.001 132 121.001Z" fill="#333333"/>
<path d="M150 121.001C151.105 121.001 152 120.105 152 119.001C152 117.896 151.105 117.001 150 117.001C148.895 117.001 148 117.896 148 119.001C148 120.105 148.895 121.001 150 121.001Z" fill="#333333"/>
<path d="M127 111.001C129.667 109.001 132.333 109.001 135 111.001" stroke="#4B3621" stroke-width="2" stroke-linecap="round"/>
<path d="M145 111.001C147.667 109.001 150.333 109.001 153 111.001" stroke="#4B3621" stroke-width="2" stroke-linecap="round"/>
<path d="M132 130.001C134.667 128.001 137.333 128.001 140 130.001C142.667 132.001 145.333 132.001 148 130.001" stroke="#C0784A" stroke-width="2" stroke-linecap="round"/>
<path d="M78 130.001H64C60.6863 130.001 58 132.687 58 136.001V164.001C58 167.314 60.6863 170.001 64 170.001H78C81.3137 170.001 84 167.314 84 164.001V136.001C84 132.687 81.3137 130.001 78 130.001Z" fill="white" stroke="#049B83" stroke-width="2"/>
<path opacity="0.7" d="M83 125.001H59C56.7909 125.001 55 126.792 55 129.001V131.001C55 133.21 56.7909 135.001 59 135.001H83C85.2091 135.001 87 133.21 87 131.001V129.001C87 126.792 85.2091 125.001 83 125.001Z" fill="#049B83"/>
<path opacity="0.5" d="M77.5 143.001H64.5C63.6716 143.001 63 143.672 63 144.501C63 145.329 63.6716 146.001 64.5 146.001H77.5C78.3284 146.001 79 145.329 79 144.501C79 143.672 78.3284 143.001 77.5 143.001Z" fill="#049B83"/>
<path opacity="0.3" d="M73.5 150.001H64.5C63.6716 150.001 63 150.672 63 151.501C63 152.329 63.6716 153.001 64.5 153.001H73.5C74.3284 153.001 75 152.329 75 151.501C75 150.672 74.3284 150.001 73.5 150.001Z" fill="#049B83"/>
<path opacity="0.25" d="M71 162.001C74.866 162.001 78 160.21 78 158.001C78 155.792 74.866 154.001 71 154.001C67.134 154.001 64 155.792 64 158.001C64 160.21 67.134 162.001 71 162.001Z" fill="#049B83"/>
<path d="M216 130.001H202C198.686 130.001 196 132.687 196 136.001V164.001C196 167.314 198.686 170.001 202 170.001H216C219.314 170.001 222 167.314 222 164.001V136.001C222 132.687 219.314 130.001 216 130.001Z" fill="white" stroke="#049B83" stroke-width="2"/>
<path opacity="0.7" d="M221 125.001H197C194.791 125.001 193 126.792 193 129.001V131.001C193 133.21 194.791 135.001 197 135.001H221C223.209 135.001 225 133.21 225 131.001V129.001C225 126.792 223.209 125.001 221 125.001Z" fill="#049B83"/>
<path opacity="0.5" d="M215.5 143.001H202.5C201.672 143.001 201 143.672 201 144.501C201 145.329 201.672 146.001 202.5 146.001H215.5C216.328 146.001 217 145.329 217 144.501C217 143.672 216.328 143.001 215.5 143.001Z" fill="#049B83"/>
<path opacity="0.3" d="M211.5 150.001H202.5C201.672 150.001 201 150.672 201 151.501C201 152.329 201.672 153.001 202.5 153.001H211.5C212.328 153.001 213 152.329 213 151.501C213 150.672 212.328 150.001 211.5 150.001Z" fill="#049B83"/>
<path opacity="0.25" d="M209 162.001C212.866 162.001 216 160.21 216 158.001C216 155.792 212.866 154.001 209 154.001C205.134 154.001 202 155.792 202 158.001C202 160.21 205.134 162.001 209 162.001Z" fill="#049B83"/>
<path d="M77.562 65.4387L65.4377 72.4387C62.0896 74.3717 60.9425 78.6528 62.8755 82.0009C64.8085 85.3489 69.0896 86.4961 72.4377 84.5631L84.562 77.5631C87.9101 75.6301 89.0572 71.3489 87.1242 68.0009C85.1912 64.6528 80.9101 63.5057 77.562 65.4387Z" fill="white" stroke="#049B83" stroke-width="2"/>
<path d="M71.4999 68.9387L78.4999 81.0631" stroke="#049B83" stroke-width="1.5"/>
<path opacity="0.5" d="M74.9998 75.0009C73.0668 71.6528 68.7857 70.5057 65.4377 72.4387C62.0896 74.3717 60.9425 78.6528 62.8755 82.0009C64.8085 85.3489 69.0896 86.4961 72.4377 84.5631C75.7857 82.6301 76.9328 78.3489 74.9998 75.0009Z" fill="#049B83"/>
<path d="M213.972 67.8169L200.816 63.0287C197.183 61.7064 193.167 63.5795 191.844 67.2124C190.522 70.8452 192.395 74.8621 196.028 76.1844L209.184 80.9726C212.817 82.2949 216.833 80.4218 218.156 76.7889C219.478 73.1561 217.605 69.1392 213.972 67.8169Z" fill="white" stroke="#049B83" stroke-width="2"/>
<path d="M207.394 65.4226L202.606 78.5783" stroke="#049B83" stroke-width="1.5"/>
<path d="M205 72.0007C206.322 68.3678 204.449 64.3509 200.816 63.0287C197.183 61.7064 193.167 63.5795 191.844 67.2124C190.522 70.8452 192.395 74.8621 196.028 76.1844C199.661 77.5066 203.678 75.6335 205 72.0007Z" fill="#B2E8E2"/>
<path d="M97.1875 63.2039V62.9382C97.1927 62.0268 97.2734 61.3002 97.4297 60.7585C97.5911 60.2169 97.8255 59.7794 98.1328 59.446C98.4401 59.1127 98.8099 58.8106 99.2422 58.5398C99.5651 58.3315 99.8542 58.1153 100.109 57.8914C100.365 57.6674 100.568 57.42 100.719 57.1492C100.87 56.8731 100.945 56.5658 100.945 56.2273C100.945 55.8679 100.859 55.5528 100.688 55.282C100.516 55.0111 100.284 54.8028 99.9922 54.657C99.7057 54.5111 99.388 54.4382 99.0391 54.4382C98.7005 54.4382 98.3802 54.5138 98.0781 54.6648C97.776 54.8106 97.5286 55.0294 97.3359 55.321C97.1432 55.6075 97.0391 55.9643 97.0234 56.3914H93.8359C93.862 55.3497 94.112 54.4903 94.5859 53.8132C95.0599 53.1309 95.6875 52.6231 96.4687 52.2898C97.25 51.9513 98.112 51.782 99.0547 51.782C100.091 51.782 101.008 51.9539 101.805 52.2976C102.602 52.6361 103.227 53.1283 103.68 53.7742C104.133 54.42 104.359 55.1986 104.359 56.1101C104.359 56.7195 104.258 57.2611 104.055 57.7351C103.857 58.2039 103.578 58.6205 103.219 58.9851C102.859 59.3445 102.435 59.67 101.945 59.9617C101.534 60.2065 101.195 60.4617 100.93 60.7273C100.669 60.9929 100.474 61.3002 100.344 61.6492C100.219 61.9981 100.154 62.4278 100.148 62.9382V63.2039H97.1875ZM98.7344 68.2039C98.2135 68.2039 97.7682 68.0216 97.3984 67.657C97.0339 67.2872 96.8542 66.8445 96.8594 66.3289C96.8542 65.8184 97.0339 65.3809 97.3984 65.0164C97.7682 64.6518 98.2135 64.4695 98.7344 64.4695C99.2292 64.4695 99.6641 64.6518 100.039 65.0164C100.414 65.3809 100.604 65.8184 100.609 66.3289C100.604 66.6726 100.513 66.9877 100.336 67.2742C100.164 67.5554 99.9375 67.782 99.6562 67.9539C99.375 68.1205 99.0677 68.2039 98.7344 68.2039Z" fill="#049B83"/>
<path d="M168.33 50.8956V50.5576C168.336 49.3975 168.439 48.4728 168.638 47.7834C168.843 47.094 169.142 46.5372 169.533 46.1129C169.924 45.6887 170.394 45.3042 170.945 44.9595C171.356 44.6944 171.723 44.4193 172.048 44.1343C172.373 43.8492 172.632 43.5343 172.824 43.1897C173.016 42.8383 173.112 42.4472 173.112 42.0164C173.112 41.559 173.003 41.1579 172.784 40.8132C172.565 40.4685 172.27 40.2034 171.899 40.0178C171.535 39.8322 171.13 39.7394 170.686 39.7394C170.255 39.7394 169.848 39.8355 169.463 40.0277C169.079 40.2133 168.764 40.4917 168.518 40.8629C168.273 41.2275 168.141 41.6816 168.121 42.2252H164.064C164.097 40.8994 164.415 39.8057 165.018 38.9439C165.622 38.0755 166.42 37.4292 167.415 37.005C168.409 36.5741 169.506 36.3587 170.706 36.3587C172.025 36.3587 173.192 36.5774 174.206 37.0149C175.22 37.4458 176.016 38.0722 176.592 38.8942C177.169 39.7162 177.457 40.7072 177.457 41.8672C177.457 42.6428 177.328 43.3322 177.07 43.9354C176.818 44.532 176.463 45.0623 176.006 45.5263C175.548 45.9837 175.008 46.398 174.385 46.7692C173.861 47.0808 173.43 47.4056 173.092 47.7436C172.761 48.0817 172.512 48.4728 172.347 48.9169C172.188 49.3611 172.105 49.9079 172.098 50.5576V50.8956H168.33ZM170.298 57.2593C169.635 57.2593 169.069 57.0272 168.598 56.5632C168.134 56.0926 167.905 55.5291 167.912 54.8729C167.905 54.2233 168.134 53.6665 168.598 53.2024C169.069 52.7384 169.635 52.5064 170.298 52.5064C170.928 52.5064 171.482 52.7384 171.959 53.2024C172.436 53.6665 172.678 54.2233 172.685 54.8729C172.678 55.3104 172.562 55.7114 172.337 56.076C172.118 56.434 171.83 56.7223 171.472 56.9411C171.114 57.1532 170.723 57.2593 170.298 57.2593Z" fill="#049B83"/>
<path d="M199.426 96.076V95.8587C199.43 95.1129 199.496 94.5185 199.624 94.0753C199.756 93.6321 199.948 93.2742 200.2 93.0014C200.451 92.7287 200.754 92.4816 201.107 92.26C201.371 92.0895 201.608 91.9127 201.817 91.7294C202.026 91.5462 202.192 91.3438 202.315 91.1222C202.439 90.8963 202.501 90.6449 202.501 90.3679C202.501 90.0739 202.43 89.8161 202.29 89.5945C202.149 89.3729 201.96 89.2024 201.721 89.0831C201.487 88.9638 201.227 88.9041 200.941 88.9041C200.664 88.9041 200.402 88.9659 200.155 89.0895C199.908 89.2088 199.705 89.3878 199.548 89.6264C199.39 89.8608 199.305 90.1527 199.292 90.5022H196.684C196.705 89.6499 196.91 88.9468 197.298 88.3928C197.685 87.8345 198.199 87.4191 198.838 87.1463C199.477 86.8693 200.183 86.7308 200.954 86.7308C201.802 86.7308 202.552 86.8715 203.204 87.1527C203.856 87.4297 204.367 87.8324 204.738 88.3608C205.109 88.8892 205.294 89.5263 205.294 90.272C205.294 90.7706 205.211 91.2138 205.045 91.6016C204.883 91.9851 204.655 92.326 204.361 92.6243C204.067 92.9183 203.719 93.1847 203.319 93.4233C202.982 93.6236 202.705 93.8324 202.488 94.0497C202.275 94.2671 202.115 94.5185 202.009 94.804C201.906 95.0895 201.853 95.4411 201.849 95.8587V96.076H199.426ZM200.692 100.167C200.266 100.167 199.901 100.018 199.599 99.7195C199.3 99.4169 199.153 99.0547 199.158 98.6328C199.153 98.2152 199.3 97.8573 199.599 97.559C199.901 97.2607 200.266 97.1115 200.692 97.1115C201.097 97.1115 201.452 97.2607 201.759 97.559C202.066 97.8573 202.222 98.2152 202.226 98.6328C202.222 98.9141 202.147 99.1719 202.002 99.4063C201.862 99.6364 201.676 99.8218 201.446 99.9624C201.216 100.099 200.964 100.167 200.692 100.167Z" fill="#049B83"/>
<path d="M140 70.0007C149.941 70.0007 158 61.9419 158 52.0007C158 42.0596 149.941 34.0007 140 34.0007C130.059 34.0007 122 42.0596 122 52.0007C122 61.9419 130.059 70.0007 140 70.0007Z" fill="white" stroke="#049B83" stroke-width="2"/>
<path d="M140 54.0007C141.105 54.0007 142 53.1053 142 52.0007C142 50.8962 141.105 50.0007 140 50.0007C138.895 50.0007 138 50.8962 138 52.0007C138 53.1053 138.895 54.0007 140 54.0007Z" fill="#049B83"/>
<path d="M140 52.0007V40.0007" stroke="#049B83" stroke-width="2" stroke-linecap="round"/>
<path d="M140 52.0007L148 56.0007" stroke="#049B83" stroke-width="2" stroke-linecap="round"/>
</svg>
