<svg width="36" height="36" viewBox="0 0 36 36" fill="none" xmlns="http://www.w3.org/2000/svg">
<path d="M15.7455 30.7413L30.7413 15.7455C31.442 15.0588 31.9997 14.24 32.382 13.3364C32.7643 12.4329 32.9637 11.4625 32.9686 10.4814C32.9736 9.50033 32.784 8.52799 32.4109 7.62063C32.0377 6.71326 31.4884 5.88887 30.7946 5.19512C30.1009 4.50138 29.2765 3.95204 28.3691 3.57888C27.4617 3.20572 26.4894 3.01614 25.5083 3.02109C24.5272 3.02605 23.5568 3.22544 22.6533 3.60775C21.7497 3.99006 20.9309 4.54769 20.2442 5.24841L5.24841 20.2442C4.54769 20.9309 3.99006 21.7497 3.60775 22.6533C3.22544 23.5568 3.02605 24.5272 3.02109 25.5083C3.01614 26.4894 3.20572 27.4617 3.57888 28.3691C3.95204 29.2765 4.50138 30.1009 5.19512 30.7946C5.88887 31.4884 6.71326 32.0377 7.62063 32.4109C8.52799 32.784 9.50033 32.9736 10.4814 32.9686C11.4625 32.9637 12.4329 32.7643 13.3364 32.382C14.24 31.9997 15.0588 31.442 15.7455 30.7413Z" stroke="white" stroke-width="3.29908" stroke-linecap="round" stroke-linejoin="round"/>
<path d="M12.7463 12.7463L23.2428 23.2428" stroke="white" stroke-width="3.29908" stroke-linecap="round" stroke-linejoin="round"/>
</svg>
